<svg xmlns="http://www.w3.org/2000/svg" width="24" height="24" viewBox="0 0 24 24" fill="none" stroke="currentColor" stroke-width="2" stroke-linecap="round" stroke-linejoin="round">
  <path d="M6 10a2 2 0 1 1-4 0 2 2 0 0 1 4 0Z"/>
  <path d="M6 10h8"/>
  <path d="M18 10a2 2 0 1 1-4 0 2 2 0 0 1 4 0Z"/>
  <path d="M22 10a2 2 0 1 1-4 0 2 2 0 0 1 4 0Z"/>
  <path d="M2 18a2 2 0 1 1 4 0 2 2 0 0 1-4 0Z"/>
  <path d="M10 18a2 2 0 1 1 4 0 2 2 0 0 1-4 0Z"/>
  <path d="M18 18a2 2 0 1 1 4 0 2 2 0 0 1-4 0Z"/>
  <path d="M4 16v-6"/>
  <path d="M12 16v-6"/>
  <path d="M20 16v-6"/>
</svg>
